<?xml version="1.0" encoding="utf-8"?>
<!-- Generator: Adobe Illustrator 16.0.4, SVG Export Plug-In . SVG Version: 6.00 Build 0)  -->
<!DOCTYPE svg PUBLIC "-//W3C//DTD SVG 1.1//EN" "http://www.w3.org/Graphics/SVG/1.1/DTD/svg11.dtd">
<svg version="1.1" id="Layer_1" xmlns="http://www.w3.org/2000/svg" xmlns:xlink="http://www.w3.org/1999/xlink" x="0px" y="0px"
	 width="48px" height="48px" viewBox="0 0 48 48" enable-background="new 0 0 48 48" xml:space="preserve">
<g>
	<path fill="#17103D" d="M45.635,22.058H45.52v-2.81h0.115c0.754,0,1.365,0.61,1.365,1.365v0.079
		C47,21.446,46.389,22.058,45.635,22.058z"/>
	<rect x="21.304" y="18.697" fill="#17103D" width="9.666" height="1.766"/>
	<path fill="#17103D" d="M4.958,23.842c-0.037,0.024-0.06,0.037-0.06,0.037c-1.307,0.688-2.147,1.278-2.68,1.726
		c-0.361,0.303-0.174,0.891,0.297,0.931c2.756,0.237,3.475,1.519,3.609,1.832c0.025,0.059,0.051,0.118,0.078,0.177
		c0.722,1.59-0.079,2.781-0.66,3.377c-0.393,0.403-0.706,0.877-0.934,1.391c-2.049,4.625-3.098,9.067-3.577,11.58
		C0.823,45.987,1.663,47,2.777,47h9.24c0.366,0,0.664-0.298,0.664-0.664v-0.519c0-1.205,0.176-2.403,0.52-3.56l1.854-6.215
		c0.439-1.474,1.795-2.483,3.331-2.483h1.966c4.774,0,6.858-1.68,7.75-2.937c0.368-0.521,0.59-1.131,0.674-1.765
		c0.229-1.719,1.375-2.541,2.321-2.93h5.644c0.229,0,0.447-0.106,0.588-0.289l0.244-0.317h6.43c0.607,0,1.102-0.493,1.102-1.103
		v-0.38L4.958,23.842L4.958,23.842z M10.38,43.252c-0.163,0.492-0.623,0.823-1.141,0.823H5.693c-0.823,0-1.403-0.811-1.137-1.592
		c0.269-3.545,2.256-8.31,4.549-13.289h5.942C13.048,33.888,11.438,38.574,10.38,43.252z M23.303,32.101
		c-2.665,0.711-4.565-0.271-4.904-1.535c-0.266-0.996,0.328-2.082,1.892-2.847c-0.022,1.005,0.382,2.353,2.483,2.956
		c0.205,0.059,0.352-0.193,0.199-0.342c-0.679-0.661-1.475-1.883-0.285-3.35c2.25-0.346,4.037,0.344,4.336,1.461
		C27.359,29.71,25.968,31.39,23.303,32.101z"/>
	<g>
		<path fill="#17103D" d="M11.33,31.579c-0.501-0.271-1.139-0.15-1.504,0.312C9.461,32.353,9.492,33,9.87,33.426L11.33,31.579z"/>
		<path fill="#17103D" d="M11.658,31.838l-1.459,1.849c0.501,0.27,1.138,0.149,1.503-0.312
			C12.066,32.911,12.036,32.265,11.658,31.838z"/>
	</g>
	<g>
		<path fill="#17103D" d="M6.913,40.382c-0.359,0.441-0.362,1.09,0.022,1.536c0.386,0.445,1.027,0.537,1.517,0.245L6.913,40.382z"/>
		<path fill="#17103D" d="M7.229,40.108l1.539,1.781c0.359-0.441,0.362-1.091-0.022-1.537C8.359,39.908,7.718,39.815,7.229,40.108z"
			/>
	</g>
	<path fill="#17103D" d="M44.381,18.337H31.434v2.506H20.842v-2.506H10.036l-0.591-0.973c-0.276-0.455-0.979-0.26-0.979,0.273v0.698
		H7.668c-0.43,0-0.837,0.196-1.104,0.534l-0.197,0.25c-0.323,0.41-0.833,0.627-1.354,0.574l-0.898-0.092
		c-0.534-0.055-0.833,0.601-0.442,0.969l0.771,0.726c1.256,0.79,1.301,1.472,1.069,1.937h39.589v-4.176
		C45.102,18.66,44.777,18.337,44.381,18.337z M7.254,22.437c-0.14-0.047-0.216-0.195-0.171-0.336l0.819-2.527
		c0.045-0.141,0.195-0.217,0.335-0.172c0.14,0.046,0.216,0.195,0.171,0.336l-0.819,2.527C7.544,22.403,7.395,22.479,7.254,22.437z
		 M8.241,22.437c-0.14-0.047-0.216-0.195-0.171-0.336l0.818-2.527c0.045-0.141,0.195-0.217,0.336-0.172
		c0.14,0.046,0.215,0.195,0.17,0.336l-0.817,2.527C8.531,22.403,8.381,22.479,8.241,22.437z M9.229,22.437
		c-0.141-0.047-0.217-0.195-0.172-0.336l0.819-2.527c0.045-0.141,0.195-0.217,0.335-0.172c0.141,0.046,0.216,0.195,0.171,0.336
		l-0.819,2.527C9.518,22.403,9.368,22.479,9.229,22.437z M10.215,22.437c-0.14-0.047-0.216-0.195-0.171-0.336l0.819-2.527
		c0.045-0.141,0.195-0.217,0.335-0.172c0.14,0.046,0.216,0.195,0.171,0.336l-0.819,2.527C10.505,22.403,10.355,22.479,10.215,22.437
		z M11.202,22.437c-0.14-0.047-0.216-0.195-0.171-0.336l0.818-2.527c0.045-0.141,0.195-0.217,0.336-0.172
		c0.14,0.046,0.215,0.195,0.17,0.336l-0.818,2.527C11.492,22.403,11.342,22.479,11.202,22.437z M13.343,19.735l-0.819,2.529
		c-0.045,0.139-0.194,0.215-0.334,0.17c-0.141-0.045-0.217-0.194-0.172-0.334l0.819-2.528c0.045-0.14,0.195-0.216,0.334-0.171
		C13.312,19.447,13.389,19.597,13.343,19.735z"/>
</g>
</svg>
