<?xml version="1.0" encoding="utf-8"?>
<!-- Generator: Adobe Illustrator 16.0.4, SVG Export Plug-In . SVG Version: 6.00 Build 0)  -->
<!DOCTYPE svg PUBLIC "-//W3C//DTD SVG 1.1//EN" "http://www.w3.org/Graphics/SVG/1.1/DTD/svg11.dtd">
<svg version="1.1" id="Layer_1" xmlns="http://www.w3.org/2000/svg" xmlns:xlink="http://www.w3.org/1999/xlink" x="0px" y="0px"
	 width="48px" height="48px" viewBox="0 0 48 48" enable-background="new 0 0 48 48" xml:space="preserve">
<g>
	<path fill="#17103D" d="M43.212,18.559c-0.508-1.061-1.762-1.533-2.841-1.067c-0.384,0.165-0.768,0.323-1.15,0.478
		c-0.099,0.531-0.492,0.975-1.033,1.131c-9.769,2.825-19.238,2.855-28.402,0.015c-0.537-0.167-0.922-0.616-1.012-1.148
		c-0.381-0.153-0.763-0.312-1.145-0.475c-1.08-0.466-2.333,0.008-2.841,1.067c-0.538,1.123-0.036,2.471,1.108,2.961
		C11.908,24.1,17.954,25.389,24,25.389S36.092,24.1,42.104,21.52C43.247,21.029,43.749,19.682,43.212,18.559z"/>
	<path fill="#17103D" d="M38.952,16.473C38.889,8.469,32.383,2,24.365,2h-0.731C15.611,2,9.102,8.479,9.047,16.49
		C18.926,19.648,28.951,19.643,38.952,16.473z M33.929,15.534c-0.257-0.021-0.575,0-0.618,0.278
		c-0.041,0.265-1.017,0.957-0.938-2.523c0.062,0.016,0.124,0.023,0.188,0.023c0.258,0,0.483-0.129,0.618-0.326
		c0.679,0.494,1.667,1.322,1.625,1.929C34.74,15.833,34.186,15.557,33.929,15.534z M32.039,12.564c0-0.289,0.232-0.522,0.521-0.522
		s0.523,0.233,0.523,0.522s-0.234,0.523-0.523,0.523C32.273,13.088,32.039,12.854,32.039,12.564z M34.525,11.369
		c0.301-0.428,0.94-0.471,1.283,0.833c0.342,1.303-0.086,1.751-0.578,1.751c-0.36,0-1.313-0.869-1.961-1.146
		c0.024-0.076,0.039-0.158,0.039-0.242c0-0.198-0.078-0.379-0.203-0.513C33.513,11.938,34.309,11.684,34.525,11.369z M31.898,9.255
		c1.539-0.235,2.394-0.043,2.328,0.94c-0.164,0.822-0.895,1.33-1.347,1.693c-0.097-0.046-0.205-0.07-0.319-0.07
		c-0.115,0-0.227,0.026-0.323,0.074C31.708,11.111,30.725,9.436,31.898,9.255z M29.073,11.76c0.073-0.223,0.092-0.46,0.065-0.693
		c-0.111-1.017,1.81-1.104,1.906-0.444c0.086,0.589,0.619,1.235,0.962,1.442c-0.1,0.109-0.166,0.25-0.187,0.404
		c-0.004,0.032-0.008,0.064-0.008,0.098c0,0.035,0.004,0.072,0.009,0.105c0.03,0.219,0.157,0.408,0.335,0.521
		c-0.1,0.703,0.123,1.943-0.066,2.246c-0.229,0.365-0.764,0.586-1.236-0.138c-0.148-0.227-0.353-0.413-0.593-0.536
		c-1.058-0.55-0.457-1.271,0.015-1.295c0.337-0.018,0.869-0.434,1.205-0.728c-0.744,0.124-1.791,0.208-2.209-0.07
		C28.934,12.445,28.979,12.048,29.073,11.76z"/>
	<path fill="#17103D" d="M24.109,32.049C19.152,23.171,9.395,31.43,6.541,27.82c4.645,9.846,15.398,11.916,17.568,4.875
		c2.168,7.041,12.923,4.971,17.567-4.875C38.822,31.43,29.064,23.171,24.109,32.049z M12.688,31.561
		c1.948,0.607,6.445-4.11,9.594,1.181C20.002,35.807,14.246,34.93,12.688,31.561z M25.938,32.74c3.148-5.291,7.646-0.572,9.595-1.18
		C33.973,34.93,28.217,35.807,25.938,32.74z"/>
	<path fill="#17103D" d="M24.23,42.27c-0.147,0.049-0.314,0.049-0.463,0c-0.479-0.16-1.559-0.51-1.715-0.465
		c-0.201,0.06-4.677,2.06-5.84,2.816c0,0,3.16,3.379,7.786,3.379c4.625,0,7.785-3.379,7.785-3.379
		c-1.163-0.758-5.638-2.758-5.839-2.816C25.79,41.76,24.711,42.109,24.23,42.27z"/>
</g>
</svg>
