<?xml version="1.0" encoding="utf-8"?>
<!-- Generator: Adobe Illustrator 16.0.4, SVG Export Plug-In . SVG Version: 6.00 Build 0)  -->
<!DOCTYPE svg PUBLIC "-//W3C//DTD SVG 1.1//EN" "http://www.w3.org/Graphics/SVG/1.1/DTD/svg11.dtd">
<svg version="1.1" id="Layer_1" xmlns="http://www.w3.org/2000/svg" xmlns:xlink="http://www.w3.org/1999/xlink" x="0px" y="0px"
	 width="48px" height="48px" viewBox="0 0 48 48" enable-background="new 0 0 48 48" xml:space="preserve">
<g>
	<path fill="#17103D" d="M24,1C11.318,1,1,11.318,1,24c0,12.684,10.318,23,23,23c12.684,0,23-10.316,23-23C47,11.318,36.684,1,24,1z
		 M35.627,10.809l-4.605,4.75c-0.199,0.207-0.199,0.528,0,0.734l4.605,4.75c0.062,0.064,0.048,0.129,0.033,0.163
		c-0.037,0.087-0.139,0.127-0.225,0.075l-8.151-5.028c-0.114-0.069-0.183-0.192-0.183-0.327s0.067-0.256,0.183-0.326l8.151-5.029
		c0.026-0.016,0.056-0.024,0.082-0.024c0.061,0,0.116,0.04,0.143,0.101C35.675,10.68,35.689,10.745,35.627,10.809z M12.373,21.044
		l4.605-4.75c0.2-0.206,0.2-0.528,0-0.733l-4.605-4.75c-0.062-0.064-0.048-0.129-0.034-0.164c0.025-0.06,0.083-0.1,0.142-0.1
		c0.027,0,0.057,0.008,0.084,0.025l8.151,5.027c0.114,0.071,0.183,0.193,0.183,0.327s-0.067,0.257-0.183,0.327l-8.151,5.028
		c-0.086,0.053-0.188,0.013-0.226-0.075C12.325,21.174,12.311,21.107,12.373,21.044z M9.883,24.248
		c0.323,0.413,1.188,1.373,2.859,2.344c1.996,1.158,5.57,2.539,11.258,2.539s9.262-1.381,11.258-2.539
		c1.674-0.971,2.536-1.931,2.859-2.344c-0.484,5.684-2.891,9.734-7.152,12.046c-3.307,1.792-6.57,1.845-6.932,1.845H24h-0.033
		c-0.361,0-3.625-0.053-6.931-1.845C12.773,33.982,10.367,29.932,9.883,24.248z"/>
</g>
</svg>
