<?xml version="1.0" encoding="utf-8"?>
<!-- Generator: Adobe Illustrator 16.0.4, SVG Export Plug-In . SVG Version: 6.00 Build 0)  -->
<!DOCTYPE svg PUBLIC "-//W3C//DTD SVG 1.1//EN" "http://www.w3.org/Graphics/SVG/1.1/DTD/svg11.dtd">
<svg version="1.1" id="Layer_1" xmlns="http://www.w3.org/2000/svg" xmlns:xlink="http://www.w3.org/1999/xlink" x="0px" y="0px"
	 width="48px" height="48px" viewBox="0 0 48 48" enable-background="new 0 0 48 48" xml:space="preserve">
<g>
	<path fill="#17103D" d="M25.826,16.923l-0.863,0.097l-0.404,0.791c-1.656,3.239-2.531,7.07-2.531,11.078
		C22.027,38.876,27.63,47,34.514,47C41.398,47,47,38.876,47,28.889c0-4.008-0.875-7.839-2.53-11.078l-0.405-0.791l-0.862-0.097
		C37.247,16.044,31.452,16.025,25.826,16.923z M26.943,27.799c0.298-0.688,1.705-0.753,3.146-0.148
		c1.44,0.604,2.364,1.647,2.066,2.334s-1.706,0.752-3.146,0.148S26.646,28.484,26.943,27.799z M34.514,40.157
		c-3.115,0-5.646-1.856-5.711-4.163c1.52,0.914,3.52,1.47,5.711,1.47c2.193,0,4.192-0.556,5.711-1.47
		C40.161,38.301,37.63,40.157,34.514,40.157z M40.018,30.133c-1.438,0.604-2.848,0.537-3.146-0.148
		c-0.298-0.687,0.628-1.73,2.065-2.334c1.439-0.604,2.849-0.537,3.146,0.148S41.457,29.529,40.018,30.133z"/>
	<path fill="#17103D" d="M20.743,28.889c0-3.423,0.64-6.715,1.856-9.621c-1.047-2.326-2.388-4.365-3.894-6.016
		c-6.447-0.441-12.187,1.182-17.312,4.585C0.749,21.064,0.87,24.852,1.957,28.71c2.625,9.322,9.775,15.138,15.625,13.589
		c2.05-0.543,3.762-1.943,5.011-3.934C21.42,35.607,20.743,32.359,20.743,28.889z M16.643,22.711
		c1.222-0.951,2.595-1.245,3.067-0.656c0.474,0.586-0.132,1.834-1.353,2.783c-1.222,0.95-2.595,1.244-3.067,0.657
		C14.816,24.907,15.422,23.661,16.643,22.711z M7.766,27.643c-1.549-0.217-2.724-0.992-2.625-1.73
		c0.101-0.739,1.438-1.162,2.986-0.945s2.725,0.992,2.624,1.73C10.65,27.438,9.314,27.859,7.766,27.643z M15.391,34.514
		c-2.11,0.559-3.884,1.605-5.096,2.877c-0.566-2.248,1.364-4.688,4.362-5.48c2.998-0.794,5.938,0.355,6.628,2.57
		C19.576,33.982,17.5,33.954,15.391,34.514z"/>
</g>
</svg>
