<?xml version="1.0" encoding="utf-8"?>
<!-- Generator: Adobe Illustrator 16.0.4, SVG Export Plug-In . SVG Version: 6.00 Build 0)  -->
<!DOCTYPE svg PUBLIC "-//W3C//DTD SVG 1.1//EN" "http://www.w3.org/Graphics/SVG/1.1/DTD/svg11.dtd">
<svg version="1.1" id="Layer_1" xmlns="http://www.w3.org/2000/svg" xmlns:xlink="http://www.w3.org/1999/xlink" x="0px" y="0px"
	 width="48px" height="48px" viewBox="0 0 48 48" enable-background="new 0 0 48 48" xml:space="preserve">
<g>
	<g>
		<path fill="#17103D" d="M24.079,4.146l-0.003-0.08c0.05-0.033,0.083-0.09,0.083-0.152c0-0.102-0.085-0.184-0.189-0.184
			s-0.188,0.082-0.188,0.184c0,0.059,0.029,0.111,0.072,0.145v0.239l0,0L23.865,9.1c0,0.071,0.076,0.129,0.17,0.129h0.003
			c0.094,0,0.17-0.062,0.169-0.134l-0.048-2.743L24.079,4.146z"/>
		<path fill="#17103D" d="M28.28,5.891V5.87l-0.001-0.076l0,0l-0.004-0.416V5.37V5.3L28.27,4.84l-0.006-0.665l-0.082,0.058
			c-0.166,0.119-0.328,0.199-0.492,0.248c-0.08,0.024-0.164,0.041-0.246,0.05c-0.194,0.021-0.397,0-0.641-0.065
			c-0.22-0.059-0.449-0.148-0.646-0.229h-0.002c-0.104-0.043-0.212-0.088-0.326-0.137l-0.056-0.022
			c-0.086-0.036-0.172-0.066-0.258-0.091l0,0l-0.033-0.008l0,0L25.416,3.96v0.001c-0.191-0.044-0.385-0.059-0.571-0.041V3.919
			l-0.057,0.007l0,0l-0.043,0.006l0,0c-0.078,0.012-0.157,0.028-0.232,0.051c-0.159,0.049-0.28,0.11-0.364,0.162l0.08,2.207
			c0.078-0.047,0.192-0.105,0.34-0.149c0.084-0.026,0.174-0.044,0.264-0.056l0,0c0.21-0.024,0.428-0.008,0.646,0.053l0,0
			c0.088,0.023,0.179,0.055,0.268,0.092l0.061,0.025c0.106,0.043,0.207,0.086,0.307,0.127l0,0l0.025,0.011l0,0l0.073,0.03l0,0
			c0.173,0.068,0.366,0.141,0.556,0.192l0,0L26.8,6.686l0,0l0.066,0.018V6.702c0.207,0.049,0.39,0.067,0.562,0.054v0.001
			l0.056-0.006l0,0l0.043-0.004V6.746c0.074-0.01,0.146-0.025,0.219-0.047c0.175-0.053,0.347-0.139,0.523-0.264l0.017-0.012
			L28.28,5.891z M26.493,5.479L26.6,6.027l-0.516-0.252l-0.506,0.268l0.089-0.552l-0.42-0.384l0.569-0.09l0.246-0.504l0.265,0.496
			l0.571,0.071L26.493,5.479z"/>
	</g>
	<polygon fill="#17103D" points="24.011,22.447 11.759,26.588 12.094,27.802 24.011,23.773 35.929,27.802 36.263,26.588 	"/>
	<polygon fill="#17103D" points="28.573,23.48 28.573,20.232 19.448,20.232 19.448,23.48 24.011,21.939 	"/>
	<path fill="#17103D" d="M12.729,27.957V47h2.52v-4.168h3.122V47h2.262v-7.596h6.759V47h2.262v-4.168h3.121V47h2.521V27.957
		l-11.283-3.811L12.729,27.957z M15.248,29.848c0-0.951,0.695-1.722,1.554-1.722s1.554,0.771,1.554,1.722v0.243h-3.107V29.848z
		 M15.248,30.484h3.107v4.091h-3.107V30.484z M18.37,42.408h-3.122v-0.09c0-0.955,0.699-1.729,1.561-1.729
		c0.862,0,1.562,0.774,1.562,1.729V42.408L18.37,42.408z M27.391,38.896h-6.759v-0.942c0-2.068,1.513-3.745,3.379-3.745
		s3.38,1.677,3.38,3.745V38.896L27.391,38.896z M32.773,42.408h-3.121v-0.09c0-0.955,0.697-1.729,1.561-1.729
		s1.561,0.774,1.561,1.729V42.408L32.773,42.408z M29.643,29.848c0-0.951,0.694-1.722,1.554-1.722c0.858,0,1.555,0.771,1.555,1.722
		v0.243h-3.108V29.848L29.643,29.848z M29.643,30.484h3.107v4.091h-3.107V30.484z"/>
	<polygon fill="#17103D" points="28.723,18.664 28.723,19.566 27.676,19.566 27.676,18.664 26.629,18.664 26.629,19.566 
		25.581,19.566 25.581,18.664 24.534,18.664 24.534,19.566 23.487,19.566 23.487,18.664 22.439,18.664 22.439,19.566 21.395,19.566 
		21.395,18.664 20.348,18.664 20.348,19.566 19.3,19.566 19.3,18.664 18.643,18.664 18.643,20.469 29.38,20.469 29.38,18.664 	"/>
	<polygon fill="#17103D" points="24.011,7.202 19.448,17.941 24.011,17.941 28.573,17.941 	"/>
	<g>
		<path fill="#17103D" d="M41.699,9.291l-0.003-0.08c0.05-0.033,0.083-0.089,0.083-0.152c0-0.102-0.086-0.184-0.19-0.184
			S41.4,8.957,41.4,9.059c0,0.06,0.028,0.111,0.072,0.146l0.002,0.239h-0.002l0.012,4.801c0,0.072,0.078,0.13,0.171,0.129h0.004
			c0.095,0,0.17-0.061,0.169-0.133l-0.048-2.742L41.699,9.291z"/>
		<path fill="#17103D" d="M45.9,11.036v-0.021v-0.078l0,0l-0.004-0.414v-0.008l-0.002-0.07l-0.004-0.461L45.885,9.32l-0.082,0.058
			c-0.168,0.118-0.328,0.199-0.492,0.249c-0.082,0.023-0.164,0.041-0.246,0.049c-0.194,0.02-0.397,0-0.642-0.064
			c-0.219-0.059-0.45-0.148-0.646-0.229h-0.002c-0.104-0.042-0.211-0.087-0.326-0.135l-0.057-0.023
			c-0.086-0.035-0.172-0.065-0.258-0.09l0,0l-0.031-0.009l0,0l-0.066-0.019v0.002c-0.193-0.045-0.387-0.06-0.572-0.043l0,0
			l-0.057,0.007l0,0l-0.042,0.005v0.001c-0.079,0.012-0.157,0.028-0.233,0.052c-0.158,0.049-0.279,0.11-0.363,0.161l0.08,2.208
			c0.077-0.047,0.191-0.105,0.338-0.15c0.086-0.024,0.176-0.043,0.265-0.055l0,0c0.21-0.025,0.428-0.007,0.647,0.053l0,0
			c0.088,0.023,0.178,0.055,0.267,0.092l0.06,0.024c0.107,0.045,0.209,0.087,0.307,0.127l0,0l0.026,0.011l0,0l0.073,0.03l0,0
			c0.173,0.069,0.366,0.142,0.556,0.193l0,0l0.032,0.009l0,0l0.066,0.018l0,0c0.207,0.049,0.39,0.065,0.563,0.054v0.001l0.056-0.006
			l0,0l0.043-0.006l0,0c0.072-0.011,0.146-0.026,0.218-0.047c0.175-0.054,0.347-0.14,0.522-0.264l0.018-0.012L45.9,11.036z
			 M44.113,10.623l0.106,0.549l-0.515-0.252l-0.506,0.268l0.088-0.552l-0.42-0.384l0.568-0.089l0.248-0.505l0.264,0.497l0.572,0.071
			L44.113,10.623z"/>
	</g>
	<polygon fill="#17103D" points="41.631,12.348 37.068,23.087 41.631,23.087 46.193,23.087 	"/>
	<path fill="#17103D" d="M46.343,23.811v0.901h-1.047v-0.901h-1.048v0.901h-1.046v-0.901h-1.048v0.901h-1.047v-0.901h-1.047v0.901
		h-1.048v-0.901h-1.047v0.901h-1.047v-0.901h-0.657v1.805h0.807v3.012V47h9.125V28.626v-3.012H47v-1.806L46.343,23.811
		L46.343,23.811z M41.631,28.085c0.855,0,1.548,0.769,1.548,1.716v0.29h-3.095v-0.29C40.084,28.854,40.775,28.085,41.631,28.085z
		 M40.084,34.575v-4.138h3.095v4.138H40.084z"/>
	<g>
		<g>
			<path fill="#17103D" d="M6.438,9.291l-0.004-0.08c0.051-0.033,0.084-0.089,0.084-0.152c0-0.102-0.084-0.184-0.189-0.184
				c-0.104,0-0.189,0.082-0.189,0.184c0,0.06,0.029,0.111,0.074,0.146v0.239c0,0,0,0-0.001,0l0.013,4.801
				c0,0.072,0.076,0.13,0.17,0.129h0.002c0.095,0,0.17-0.061,0.17-0.133l-0.049-2.743L6.438,9.291z"/>
			<path fill="#17103D" d="M10.638,11.036v-0.021v-0.078l0,0l-0.003-0.414v-0.008l-0.001-0.07L10.63,9.984L10.624,9.32l-0.082,0.058
				c-0.168,0.118-0.329,0.199-0.493,0.249C9.968,9.65,9.885,9.668,9.802,9.677c-0.194,0.021-0.396-0.001-0.64-0.065
				C8.943,9.553,8.713,9.464,8.516,9.384l0,0C8.411,9.342,8.303,9.296,8.189,9.249L8.133,9.225c-0.086-0.035-0.172-0.065-0.258-0.09
				l0,0L7.843,9.126l0,0L7.777,9.107v0.002C7.584,9.064,7.393,9.051,7.205,9.066l0,0L7.148,9.073l0,0L7.105,9.078v0.001
				C7.027,9.091,6.949,9.107,6.873,9.131c-0.159,0.047-0.281,0.11-0.364,0.161l0.08,2.208c0.077-0.047,0.192-0.105,0.338-0.15
				c0.085-0.025,0.175-0.043,0.265-0.055l0,0c0.209-0.025,0.428-0.008,0.646,0.051l0,0c0.088,0.023,0.178,0.055,0.268,0.092
				l0.06,0.025c0.106,0.045,0.208,0.087,0.306,0.127l0,0l0.026,0.01l0,0l0.074,0.03l0,0c0.172,0.069,0.366,0.142,0.555,0.193l0,0
				l0.033,0.008l0,0l0.065,0.019v-0.002c0.207,0.049,0.39,0.067,0.564,0.055l0,0l0.056-0.006l0,0l0.044-0.004l0,0
				c0.072-0.011,0.146-0.025,0.217-0.047c0.176-0.054,0.347-0.14,0.523-0.264l0.018-0.012L10.638,11.036z M8.852,10.623l0.106,0.549
				L8.443,10.92l-0.506,0.268l0.088-0.552l-0.42-0.384l0.569-0.089l0.247-0.505l0.264,0.497l0.572,0.071L8.852,10.623z"/>
		</g>
		<polygon fill="#17103D" points="6.369,12.348 1.807,23.087 6.369,23.087 10.932,23.087 		"/>
		<path fill="#17103D" d="M11.08,23.811v0.901h-1.047v-0.901H8.986v0.901H7.939v-0.901H6.893v0.901H5.845v-0.901H4.798v0.901H3.751
			v-0.901H2.704v0.901H1.657v-0.901H1v1.805h0.807v3.012V47h9.125V28.626v-3.012h0.806v-1.806L11.08,23.811L11.08,23.811z
			 M6.369,28.085c0.854,0,1.547,0.769,1.547,1.716v0.29H4.821v-0.29C4.821,28.854,5.514,28.085,6.369,28.085z M4.821,34.575v-4.138
			h3.095v4.138H4.821z"/>
	</g>
</g>
</svg>
