<?xml version="1.0" encoding="utf-8"?>
<!-- Generator: Adobe Illustrator 16.0.4, SVG Export Plug-In . SVG Version: 6.00 Build 0)  -->
<!DOCTYPE svg PUBLIC "-//W3C//DTD SVG 1.1//EN" "http://www.w3.org/Graphics/SVG/1.1/DTD/svg11.dtd">
<svg version="1.1" id="Layer_1" xmlns="http://www.w3.org/2000/svg" xmlns:xlink="http://www.w3.org/1999/xlink" x="0px" y="0px"
	 width="48px" height="48px" viewBox="0 0 48 48" enable-background="new 0 0 48 48" xml:space="preserve">
<g>
	<path fill="#17103D" d="M45.164,39.309c-2.85-2.373-13.219-14.562-14.168-19.233c-0.949-4.669-2.93-8.455-8.39-8.455
		c0,0-6.568-0.33-9.261,8.772c0,0-1.422,4.125-1.436,5.969c-0.003,0.405-0.036,0.81-0.114,1.206
		c-0.273,1.397-1.145,4.109-3.868,6.188c-0.071,0.055-0.144,0.105-0.218,0.157c-0.961,0.669-8.835,6.362-6.157,11.569
		c0,0,0.476-0.657,1.148-1.227c-0.212-1.195,0.108-2.789,2.977-3.715c4.876-1.575,3.556-5.193,3.556-5.193s2.082,4.584-2.896,6.972
		c-0.733,0.352-1.093,0.802-1.173,1.312c0.429,0.248,0.829,0.762,1.152,1.665c0.078,0.222,0.193,0.429,0.35,0.604
		c0.555,0.625,1.999,1.539,5.045-0.36c0.057-0.034,0.107-0.072,0.16-0.112c0.391-0.307,2.398-1.77,4.365-1.117
		c1.465-1.91,2.939-4.752,2.648-8.246c0,0,1.084,6.146-0.461,10.052c1.275,1.312,2.401,0.937,3.162,0.321
		c0.562-0.453,0.96-1.076,1.158-1.771c0.203-0.707,0.641-1.854,1.422-2.235c-0.863-2.927-1.479-6.359-1.008-9.453
		c0,0,0.492,4.821,1.826,9.355c0.666,0.137,1.496,0.777,2.527,2.278c3.426,4.997,3.182,0.595,3.102-0.317
		c-0.025-0.298-0.02-0.598,0.029-0.892c0.15-0.917,0.764-2.193,3.148-0.705c-1.723-1.827-3.174-4.226-3.826-7.351
		c0,0,4.684,8.424,11.334,9.661c0.986-1.551,3.283-1.557,4.205,0.063c0.018,0.029,0.035,0.062,0.053,0.094
		C47.062,47.936,48.014,41.684,45.164,39.309z M24.17,15.091c0.708-0.251,1.666,0.627,2.14,1.964
		c0.473,1.334,0.281,2.619-0.426,2.87c-0.709,0.251-1.666-0.627-2.139-1.962C23.272,16.627,23.462,15.342,24.17,15.091z
		 M18.688,16.985c0.545-1.307,1.551-2.133,2.244-1.844c0.692,0.291,0.812,1.584,0.268,2.893c-0.547,1.307-1.551,2.132-2.244,1.842
		C18.261,19.585,18.143,18.292,18.688,16.985z M25.561,26.868c-0.154,0.044-0.324-0.03-0.371-0.164l-0.205-0.591
		c-0.039-0.113-0.168-0.188-0.307-0.176l-0.922,0.076c-0.131,0.01-0.237,0.094-0.259,0.204l-0.102,0.52
		c-0.023,0.118-0.145,0.206-0.285,0.206h-0.849c-0.159,0-0.29-0.11-0.29-0.247v-0.584c0-0.13-0.119-0.238-0.271-0.246l-0.896-0.048
		c-0.147-0.008-0.279,0.08-0.304,0.205l-0.134,0.681c-0.026,0.133-0.172,0.224-0.328,0.204l-1.217-0.152
		c-0.014-0.002-0.027-0.004-0.04-0.008c-0.255-0.064-2.63-0.785-2.189-5.042c0.013-0.128,0.138-0.228,0.289-0.228h0.294
		c0.16,0,0.29,0.11,0.29,0.246v0.381c0,0.136,0.13,0.246,0.29,0.246h0.581c0.142,0,0.263-0.086,0.286-0.205l0.083-0.406
		c0.028-0.141,0.192-0.231,0.354-0.196l0.371,0.078c0.129,0.026,0.219,0.126,0.219,0.239v0.66c0,0.138,0.131,0.248,0.291,0.248
		h0.942c0.117,0,0.224-0.062,0.269-0.153l0.164-0.339c0.045-0.094,0.15-0.153,0.269-0.153h0.587c0.16,0,0.29,0.11,0.29,0.247v0.266
		c0,0.137,0.13,0.246,0.29,0.246h0.535c0.159,0,0.289-0.109,0.289-0.246v-0.443c0-0.127,0.111-0.23,0.257-0.245l0.618-0.062
		c0.156-0.016,0.296,0.078,0.32,0.211c0.037,0.224,0.104,0.521,0.188,0.521c0.092,0,0.576-0.07,0.877-0.115
		c0.139-0.021,0.238-0.123,0.238-0.243v-0.533c0-0.136,0.131-0.246,0.291-0.246h0.32c0.117,0,0.223,0.059,0.268,0.148l0.205,0.404
		c0.047,0.091,0.15,0.148,0.268,0.148h0.314c0.145,0,0.268-0.091,0.287-0.213l0.107-0.656c0.021-0.121,0.143-0.213,0.287-0.213h0.25
		c0.148,0,0.273,0.097,0.287,0.224C29.066,22.252,29.225,25.833,25.561,26.868z"/>
</g>
</svg>
