<?xml version="1.0" encoding="utf-8"?>
<!-- Generator: Adobe Illustrator 16.0.4, SVG Export Plug-In . SVG Version: 6.00 Build 0)  -->
<!DOCTYPE svg PUBLIC "-//W3C//DTD SVG 1.1//EN" "http://www.w3.org/Graphics/SVG/1.1/DTD/svg11.dtd">
<svg version="1.1" id="Layer_1" xmlns="http://www.w3.org/2000/svg" xmlns:xlink="http://www.w3.org/1999/xlink" x="0px" y="0px"
	 width="48px" height="48px" viewBox="0 0 48 48" enable-background="new 0 0 48 48" xml:space="preserve">
<g>
	<path fill="#17103D" d="M31.84,28.17V12.232V5.67c0-0.436-0.406-0.76-0.84-0.674l-19.524,3.91
		c-0.326,0.064-0.561,0.347-0.561,0.674v0.705v6.138v13.41c-1.05-0.706-2.412-1.133-3.9-1.133C3.693,28.7,1,30.823,1,33.441
		c0,2.619,2.693,4.742,6.016,4.742s6.017-2.123,6.017-4.742c0-0.168-0.013-0.334-0.033-0.496V16.332
		c0-0.189,0.136-0.354,0.325-0.391l15.948-3.193c0.25-0.05,0.486,0.139,0.486,0.391v11.92c-1.051-0.707-2.412-1.134-3.9-1.134
		c-3.323,0-6.017,2.123-6.017,4.742c0,2.618,2.693,4.741,6.017,4.741c3.322,0,6.016-2.123,6.016-4.741
		C31.873,28.499,31.861,28.333,31.84,28.17z"/>
	<path fill="#17103D" d="M41.572,22.9c-1.43-1.12-1.322-1.754-1.453-2.176c-0.133-0.423-0.496-0.941-1.291-0.941h-0.494
		c-0.438,0-0.793,0.349-0.793,0.779v4.677v1.655v10.511c0,0.528-0.551,0.891-1.043,0.681c-0.85-0.363-1.822-0.57-2.857-0.57
		c-3.322,0-6.016,2.123-6.016,4.742C27.623,44.877,30.316,47,33.641,47c3.086,0,5.629-1.831,5.975-4.189
		c0.006-0.037,0.008-0.074,0.008-0.109v-0.939V26.896v-1.149c7.344,3.335,5.043,7.599,2.734,10.839
		c-0.049,0.068,0.021,0.158,0.104,0.13c3.512-1.264,4.234-4.35,4.467-5.888C47.588,26.993,43.564,24.533,41.572,22.9z"/>
</g>
</svg>
