<?xml version="1.0" encoding="utf-8"?>
<!-- Generator: Adobe Illustrator 16.0.4, SVG Export Plug-In . SVG Version: 6.00 Build 0)  -->
<!DOCTYPE svg PUBLIC "-//W3C//DTD SVG 1.1//EN" "http://www.w3.org/Graphics/SVG/1.1/DTD/svg11.dtd">
<svg version="1.1" id="Layer_1" xmlns="http://www.w3.org/2000/svg" xmlns:xlink="http://www.w3.org/1999/xlink" x="0px" y="0px"
	 width="48px" height="48px" viewBox="0 0 48 48" enable-background="new 0 0 48 48" xml:space="preserve">
<g>
	<g>
		<path fill="#17103D" d="M23.613,46.08c0.011,0.003,0.071-0.017,0.073-0.011l-0.016-0.036c20.6-36.314-8.075-28.55-8.461-19.642
			c-0.004,0.09-0.15,0.153-0.219,0.096c-6.781-5.791-32.031,9.906,8.548,19.604l0.016,0.036
			C23.553,46.121,23.608,46.09,23.613,46.08z"/>
	</g>
	<path fill="#17103D" d="M38.06,34.472c-0.051,0.034-0.145-0.02-0.141-0.08c0.178-2.434-2.766-5.104-5.615-5.709
		c-0.557,2.979-1.846,6.731-4.115,11.395c0.556,1.971,1.355,4.242,2.457,6.852l-0.014,0.022c0.002-0.004,0.041,0.014,0.049,0.013
		c0.004,0.008,0.039,0.032,0.035,0.036l0.014-0.022C58.825,43.646,43.077,31.106,38.06,34.472z"/>
</g>
</svg>
