<?xml version="1.0" encoding="utf-8"?>
<!-- Generator: Adobe Illustrator 16.0.4, SVG Export Plug-In . SVG Version: 6.00 Build 0)  -->
<!DOCTYPE svg PUBLIC "-//W3C//DTD SVG 1.1//EN" "http://www.w3.org/Graphics/SVG/1.1/DTD/svg11.dtd">
<svg version="1.1" id="Layer_1" xmlns="http://www.w3.org/2000/svg" xmlns:xlink="http://www.w3.org/1999/xlink" x="0px" y="0px"
	 width="48px" height="48px" viewBox="0 0 48 48" enable-background="new 0 0 48 48" xml:space="preserve">
<g>
	<g>
		<g>
			<g>
				<g>
					<path fill="#17103D" d="M46.775,1.902c-0.021-0.021-0.056-0.024-0.099-0.022c-0.002,0,0.005-0.012,0.002-0.011
						c0-0.004-0.018,0.009-0.016,0.007c0-0.043,0.002-0.082-0.021-0.104L46.775,1.902z"/>
				</g>
			</g>
		</g>
		<g>
			<g>
				<g>
					<path fill="#17103D" d="M46.338,2.209l-0.037-0.117l-0.014-0.014l-0.004-0.004l-0.018-0.018l0.086-0.145
						c0-0.005-0.06,0.051-0.062,0.047c0,0.002-0.06,0.063-0.058,0.064l0,0l0.095-0.088l0.082-0.096l0.198,0.022l0.039-0.04
						l-0.094-0.158l0.178-0.093l0.09,0.077l-0.096,0.096l0.144,0.144l0,0L46.88,1.9l0.065,0.188l-0.022-0.026L46.88,2.106
						l-0.002,0.062c-0.043,0.023-0.125-0.002-0.166-0.002c0.01,0.004-0.002-0.016,0.002-0.016l-0.153,0.021L46.338,2.209z"/>
				</g>
			</g>
		</g>
	</g>
	<g>
		<g>
			<g>
				<path fill="#17103D" d="M46.822,10.59c-5.133-2.472-6.883-4.217-8.814-8.869c3.172-0.174,6.066-0.188,8.973-0.164
					c0,0.003,0,0.007,0,0.01c0.004,0,0.009,0,0.011-0.001C47.016,4.488,47.002,7.403,46.822,10.59z"/>
			</g>
		</g>
	</g>
	<g>
		<g>
			<g>
				<g>
					<path fill="#17103D" d="M46.689,1.858c0-0.003,0-0.007,0-0.01c0.004,0,0.008,0,0.01,0c0,0.003,0,0.006,0,0.009
						C46.697,1.858,46.693,1.857,46.689,1.858z"/>
				</g>
			</g>
		</g>
	</g>
	<g>
		<g>
			<g>
				<path fill="#17103D" d="M16.2,13.547c-4.757-2.618-14.609,2.084-14.498,13.121c2.817-0.158,7.055-6.126,9.142-3.568
					C12.561,19.283,14.354,16.138,16.2,13.547z"/>
			</g>
		</g>
	</g>
	<g>
		<g>
			<g>
				<g>
					<path fill="#17103D" d="M22.374,38.965c-1.795,0.733-3.756,1.482-5.827,2.183c-4.722-2.478-6.949-4.569-9.18-9.113v-0.001
						c0.728-2.099,1.449-4.029,2.182-5.826C10.617,31.477,17.334,38.013,22.374,38.965z"/>
				</g>
			</g>
		</g>
	</g>
	<g>
		<g>
			<g>
				<g>
					<path fill="#17103D" d="M16.191,41.502c-1.049,0.354-2.133,0.703-3.258,1.049c0,0-0.274-0.268-0.74-0.721
						c-1.105-1.078-3.279-3.216-5.34-5.332c-0.289-0.297-0.576-0.593-0.856-0.886c0.344-1.123,0.694-2.209,1.048-3.257
						C9.282,36.895,11.47,39.025,16.191,41.502z"/>
				</g>
			</g>
		</g>
	</g>
	<g>
		<g>
			<g>
				<path fill="#17103D" d="M8.745,45.559c-0.464,0.336-1.168,0.015-1.267-0.583c-0.172-1.05,0.386-2.106-0.57-1.751
					c-0.997,1.249-5.35,4.723-5.852,3.529c-0.367-0.986,2.321-3.203,1.701-3.649C2.177,43.56,1.014,44.409,1,43.418
					c1.166-4.244,5.568-6.574,6.048-7.114c2.062,2.116,4.235,4.254,5.34,5.333C11.934,43.097,9.852,44.758,8.745,45.559z"/>
			</g>
		</g>
	</g>
	<g>
		<g>
			<g>
				<path fill="#17103D" d="M46.727,11.076c-5.135-2.472-7.271-4.604-9.203-9.258C28.148,2.334,18.073,5.94,9.97,25.785
					c1.069,5.271,7.753,11.84,12.792,12.793C42.57,30.489,46.199,20.436,46.727,11.076z M15.915,32.508
					c-1.285-1.284-1.366-3.295-0.181-4.48c1.187-1.188,3.197-1.105,4.481,0.18c1.285,1.285,1.366,3.295,0.181,4.481
					C19.21,33.875,17.2,33.793,15.915,32.508z M21.094,27.33c-1.285-1.285-1.365-3.297-0.18-4.481
					c1.186-1.187,3.195-1.105,4.482,0.18c1.285,1.285,1.364,3.294,0.18,4.479C24.391,28.694,22.379,28.613,21.094,27.33z
					 M26.41,21.997c-3.565-3.566-3.801-9.134-0.525-12.408c3.275-3.276,8.842-3.041,12.408,0.524
					c3.566,3.566,3.803,9.134,0.525,12.408C35.543,25.797,29.977,25.562,26.41,21.997z"/>
			</g>
		</g>
	</g>
	<g>
		<g>
			<g>
				<path fill="#17103D" d="M34.992,32.358c-2.688,1.916-5.859,3.69-9.541,5.345c2.473,2.096-3.443,6.309-3.604,9.112
					C32.855,46.926,37.562,37.129,34.992,32.358z"/>
			</g>
		</g>
	</g>
</g>
</svg>
