<?xml version="1.0" encoding="utf-8"?>
<!-- Generator: Adobe Illustrator 16.0.4, SVG Export Plug-In . SVG Version: 6.00 Build 0)  -->
<!DOCTYPE svg PUBLIC "-//W3C//DTD SVG 1.1//EN" "http://www.w3.org/Graphics/SVG/1.1/DTD/svg11.dtd">
<svg version="1.1" id="Layer_1" xmlns="http://www.w3.org/2000/svg" xmlns:xlink="http://www.w3.org/1999/xlink" x="0px" y="0px"
	 width="48px" height="48px" viewBox="0 0 48 48" enable-background="new 0 0 48 48" xml:space="preserve">
<g>
	<path fill="#17103D" d="M32.563,33.252c-0.03-0.232-0.084-0.455-0.151-0.674c-0.062-0.201-0.127-0.4-0.198-0.598
		c-0.074-0.205-0.154-0.408-0.236-0.609c-0.078-0.193-0.162-0.381-0.244-0.57c-0.022-0.053-0.047-0.104-0.073-0.162
		c-0.024,0.035-0.047,0.062-0.066,0.092c-0.139,0.201-0.278,0.4-0.415,0.604c-0.119,0.18-0.236,0.359-0.348,0.545
		c-0.113,0.189-0.219,0.383-0.324,0.578c-0.1,0.184-0.188,0.375-0.252,0.582c-0.027,0.088-0.05,0.18-0.06,0.271
		c-0.021,0.207-0.003,0.41,0.051,0.605c0.056,0.203,0.146,0.383,0.269,0.531c0.152,0.186,0.336,0.312,0.551,0.371
		c0.037,0.01,0.072,0.021,0.107,0.029c0.045,0.006,0.09,0.01,0.135,0.016c0.008-0.002,0.018-0.004,0.024-0.004
		c0.131,0,0.26-0.021,0.385-0.072c0.199-0.08,0.373-0.211,0.519-0.396c0.138-0.174,0.233-0.373,0.291-0.598
		C32.57,33.613,32.587,33.434,32.563,33.252z M31.072,33.396c-0.021,0.15-0.052,0.291-0.08,0.398
		c-0.007,0.029-0.015,0.055-0.021,0.076c-0.007,0.023-0.011,0.045-0.015,0.062c-0.007,0.035-0.015,0.062-0.015,0.062l-0.116,0.059
		c0,0-0.023-0.014-0.06-0.047c-0.018-0.016-0.039-0.037-0.057-0.062c-0.02-0.025-0.042-0.059-0.059-0.094
		c-0.016-0.033-0.032-0.072-0.045-0.113c-0.011-0.041-0.021-0.088-0.026-0.133c-0.004-0.045-0.011-0.092-0.008-0.139
		c0-0.047,0.004-0.094,0.012-0.139c0.026-0.186,0.101-0.354,0.183-0.467c0.041-0.059,0.082-0.104,0.113-0.131
		c0.031-0.029,0.053-0.045,0.053-0.045l0.123,0.045c0,0,0.008,0.025,0.015,0.064c0.007,0.041,0.015,0.096,0.02,0.16
		C31.101,33.086,31.093,33.248,31.072,33.396z"/>
	<path fill="#17103D" d="M30.365,41.234c-0.03-0.234-0.085-0.463-0.153-0.686c-0.062-0.203-0.13-0.406-0.201-0.605
		c-0.076-0.211-0.156-0.416-0.24-0.621c-0.08-0.195-0.164-0.387-0.248-0.58c-0.023-0.055-0.049-0.105-0.075-0.164
		c-0.024,0.035-0.048,0.062-0.068,0.094c-0.141,0.205-0.284,0.406-0.422,0.613c-0.121,0.182-0.24,0.363-0.354,0.555
		c-0.113,0.191-0.223,0.389-0.328,0.586c-0.103,0.188-0.191,0.383-0.258,0.592c-0.026,0.09-0.051,0.186-0.06,0.277
		c-0.022,0.211-0.004,0.418,0.051,0.617c0.058,0.207,0.147,0.387,0.272,0.541c0.154,0.188,0.342,0.316,0.561,0.377
		c0.037,0.01,0.073,0.02,0.109,0.031c0.046,0.004,0.091,0.008,0.137,0.012c0.008,0,0.018-0.002,0.025-0.002
		c0.133,0,0.264-0.023,0.392-0.074c0.202-0.082,0.379-0.215,0.527-0.404c0.138-0.176,0.235-0.377,0.295-0.605
		C30.373,41.604,30.39,41.422,30.365,41.234z M28.849,41.383c-0.02,0.154-0.053,0.297-0.08,0.406
		c-0.009,0.027-0.015,0.055-0.021,0.078c-0.007,0.023-0.012,0.045-0.017,0.062c-0.006,0.037-0.015,0.062-0.015,0.062l-0.118,0.061
		c0,0-0.022-0.014-0.06-0.047c-0.019-0.018-0.041-0.039-0.058-0.064c-0.02-0.025-0.043-0.059-0.06-0.094
		c-0.016-0.035-0.034-0.076-0.046-0.119c-0.011-0.041-0.023-0.088-0.027-0.133c-0.005-0.045-0.011-0.094-0.008-0.141
		c0-0.047,0.004-0.096,0.012-0.143c0.026-0.188,0.104-0.357,0.187-0.475c0.042-0.059,0.082-0.104,0.115-0.133
		c0.03-0.031,0.054-0.045,0.054-0.045l0.124,0.047c0,0,0.008,0.023,0.015,0.064c0.008,0.041,0.017,0.098,0.021,0.162
		C28.877,41.066,28.869,41.23,28.849,41.383z"/>
	<path fill="#17103D" d="M35.562,26.141c-0.03-0.262-0.086-0.514-0.154-0.76c-0.064-0.229-0.133-0.453-0.206-0.674
		c-0.077-0.234-0.16-0.463-0.245-0.691c0,0-0.271-2.072,0.579-3.401l-1.812,0.663c0,0,1.019,1.596,0.389,2.701
		c-0.127,0.203-0.252,0.408-0.37,0.619c-0.12,0.215-0.233,0.436-0.347,0.656c-0.105,0.209-0.2,0.428-0.27,0.66
		c-0.029,0.1-0.054,0.205-0.064,0.309c-0.022,0.236-0.006,0.465,0.051,0.689c0.057,0.229,0.15,0.43,0.279,0.6
		c0.158,0.209,0.352,0.354,0.578,0.416c0.038,0.012,0.076,0.021,0.113,0.033c0.047,0.006,0.096,0.01,0.143,0.014
		c0.008,0,0.018-0.002,0.025-0.002c0.139,0,0.273-0.027,0.407-0.086c0.21-0.092,0.396-0.242,0.55-0.451
		c0.145-0.197,0.247-0.424,0.311-0.68C35.567,26.553,35.586,26.348,35.562,26.141z M33.987,26.316
		c-0.022,0.172-0.057,0.328-0.088,0.451c-0.008,0.033-0.016,0.062-0.021,0.088c-0.007,0.027-0.012,0.051-0.016,0.07
		c-0.01,0.041-0.018,0.07-0.018,0.07l-0.123,0.066c0,0-0.023-0.016-0.062-0.053c-0.019-0.018-0.042-0.041-0.06-0.072
		c-0.02-0.027-0.043-0.062-0.061-0.104c-0.018-0.039-0.035-0.084-0.047-0.131s-0.023-0.098-0.028-0.148
		c-0.004-0.051-0.01-0.104-0.007-0.156c0.001-0.053,0.005-0.105,0.014-0.158c0.029-0.209,0.108-0.4,0.195-0.529
		c0.044-0.064,0.087-0.115,0.12-0.148s0.057-0.051,0.057-0.051l0.13,0.051c0,0,0.006,0.029,0.015,0.074
		c0.008,0.045,0.015,0.109,0.02,0.182C34.019,25.965,34.009,26.146,33.987,26.316z"/>
	<path fill="#17103D" d="M27.347,36.807c-0.043-0.334-0.121-0.656-0.218-0.971c-0.089-0.291-0.184-0.578-0.286-0.859
		c-0.106-0.299-0.223-0.592-0.341-0.883c0,0-0.961-2.5,1.343-4.279l-3.051,0.783c0,0,1.404,2.041,0.553,3.443
		c-0.172,0.258-0.341,0.518-0.5,0.785c-0.164,0.271-0.316,0.553-0.469,0.832c-0.145,0.268-0.271,0.545-0.363,0.84
		c-0.039,0.127-0.072,0.262-0.086,0.395c-0.031,0.299-0.005,0.592,0.073,0.875c0.08,0.293,0.209,0.551,0.388,0.768
		c0.219,0.268,0.482,0.453,0.795,0.535c0.051,0.016,0.104,0.029,0.154,0.045c0.064,0.006,0.129,0.012,0.193,0.018
		c0.012,0,0.023-0.004,0.035-0.004c0.188,0.002,0.375-0.031,0.557-0.104c0.287-0.115,0.538-0.307,0.748-0.572
		c0.195-0.25,0.336-0.537,0.42-0.863C27.356,37.33,27.381,37.072,27.347,36.807z M25.194,37.018
		c-0.028,0.219-0.074,0.418-0.115,0.576c-0.012,0.039-0.02,0.076-0.028,0.109c-0.009,0.035-0.016,0.064-0.021,0.09
		c-0.012,0.053-0.021,0.09-0.021,0.09l-0.168,0.084c0,0-0.033-0.02-0.084-0.066c-0.025-0.021-0.059-0.053-0.082-0.092
		c-0.025-0.037-0.061-0.082-0.083-0.133c-0.021-0.049-0.049-0.105-0.065-0.166c-0.015-0.061-0.032-0.125-0.039-0.189
		c-0.006-0.064-0.016-0.135-0.012-0.199c0-0.068,0.008-0.137,0.018-0.201c0.039-0.268,0.146-0.51,0.265-0.674
		c0.06-0.082,0.116-0.146,0.162-0.189s0.077-0.062,0.077-0.062l0.177,0.064c0,0,0.011,0.037,0.021,0.096
		c0.01,0.057,0.021,0.139,0.028,0.23C25.233,36.57,25.224,36.801,25.194,37.018z"/>
	<g>
		<path fill="#17103D" d="M18.858,35.576l4.178-4.043l-5.355-5.662L3.823,39.285c-1.516,1.465-1.544,3.922-0.064,5.484
			s3.906,1.643,5.422,0.176l3.122-3.021c-0.149-1.924,0.369-3.695,1.63-4.916C15.192,35.787,16.966,35.34,18.858,35.576z
			 M8.089,43.082C7.39,43.758,6.271,43.723,5.587,43c-0.683-0.721-0.67-1.855,0.029-2.531c0.699-0.678,1.818-0.641,2.503,0.08
			C8.802,41.27,8.788,42.404,8.089,43.082z M16.278,32.65c-0.684-0.723-0.67-1.855,0.029-2.531c0.698-0.678,1.818-0.643,2.502,0.08
			s0.67,1.855-0.029,2.531C18.081,33.408,16.961,33.373,16.278,32.65z"/>
		<path fill="#17103D" d="M26.995,31.303c0.441-0.428,1.014-0.631,1.585-0.619c0.213,0.006,0.417-0.076,0.56-0.234
			c0.016-0.018,0.029-0.033,0.045-0.049c0.138-0.154,0.2-0.363,0.18-0.572c-0.07-0.676,0.152-1.369,0.668-1.867
			c0.402-0.391,0.916-0.596,1.438-0.617c0.206-0.01,0.398-0.102,0.528-0.262c0.062-0.074,0.121-0.15,0.183-0.227
			c0.114-0.143,0.172-0.324,0.157-0.51c-0.045-0.648,0.181-1.309,0.677-1.787c0.334-0.322,0.741-0.518,1.17-0.587
			c0.18-0.031,0.34-0.129,0.448-0.273c0.087-0.116,0.175-0.232,0.261-0.35c0.114-0.154,0.164-0.352,0.137-0.545
			c-0.107-0.709,0.111-1.45,0.654-1.974c0.334-0.325,0.746-0.521,1.174-0.59c0.192-0.031,0.363-0.138,0.475-0.298
			c0.044-0.063,0.087-0.127,0.13-0.189c0.124-0.181,0.154-0.41,0.097-0.626c-0.209-0.78-0.008-1.642,0.602-2.231
			c0.355-0.344,0.795-0.543,1.251-0.601c0.216-0.026,0.409-0.146,0.522-0.332c0.029-0.046,0.059-0.093,0.088-0.14
			c0.104-0.171,0.132-0.381,0.08-0.579c-0.198-0.772,0.004-1.623,0.606-2.206c0.285-0.275,0.624-0.458,0.981-0.55
			c0.193-0.05,0.358-0.177,0.453-0.354c0.082-0.152,0.16-0.304,0.239-0.455c0.082-0.158,0.104-0.344,0.06-0.52
			c-0.195-0.771,0.01-1.616,0.608-2.197c0.185-0.178,0.39-0.316,0.609-0.417c0.163-0.075,0.291-0.21,0.358-0.377
			c0.112-0.28,0.221-0.557,0.319-0.83c0.062-0.169,0.066-0.356-0.003-0.526c-0.344-0.846-0.173-1.846,0.509-2.504
			c0.056-0.055,0.112-0.104,0.173-0.15c0.147-0.116,0.24-0.292,0.263-0.48c0.174-1.562-0.072-2.832-0.87-3.676l0,0L18.242,25.33
			l7.829,8.273l0.025-0.023c0.149-0.145,0.229-0.348,0.219-0.559C26.291,32.393,26.519,31.764,26.995,31.303z"/>
	</g>
</g>
</svg>
