<?xml version="1.0" encoding="utf-8"?>
<!-- Generator: Adobe Illustrator 16.0.4, SVG Export Plug-In . SVG Version: 6.00 Build 0)  -->
<!DOCTYPE svg PUBLIC "-//W3C//DTD SVG 1.1//EN" "http://www.w3.org/Graphics/SVG/1.1/DTD/svg11.dtd">
<svg version="1.1" id="Layer_1" xmlns="http://www.w3.org/2000/svg" xmlns:xlink="http://www.w3.org/1999/xlink" x="0px" y="0px"
	 width="48px" height="48px" viewBox="0 0 48 48" enable-background="new 0 0 48 48" xml:space="preserve">
<g>
	<path fill="#17103D" d="M35.413,35.631l0.637-0.637c0.216-0.215,0.211-0.566-0.012-0.775c-0.216-0.203-0.56-0.182-0.769,0.027
		l-0.623,0.621L35.413,35.631z"/>
	<path fill="#17103D" d="M12.131,12.352l0.621-0.623c0.21-0.209,0.23-0.553,0.028-0.769c-0.21-0.223-0.562-0.228-0.776-0.012
		l-0.638,0.637L12.131,12.352z"/>
	<path fill="#17103D" d="M34.182,35.334l-1.189,1.189l-1.199-12.47c-0.048-0.496,0.128-0.988,0.48-1.341l0.498-0.498
		c0.229-0.229,0.427-0.493,0.582-0.778l2.696-4.97c0.197-0.362,0.433-0.702,0.702-1.013c1.242-1.432,4.982-5.758,6.182-7.309
		c0.957-1.239,2.832-4.815,3.983-7.082c0.32-0.629-0.351-1.301-0.979-0.98c-2.268,1.152-5.844,3.027-7.084,3.984
		c-1.55,1.199-5.877,4.938-7.309,6.181c-0.311,0.271-0.65,0.505-1.013,0.702l-4.97,2.697c-0.287,0.156-0.55,0.353-0.779,0.582
		l-0.497,0.498c-0.353,0.353-0.845,0.528-1.34,0.481l-12.472-1.199l1.188-1.188l-0.765-0.766l-6.459,6.459l0.681,0.68l1.021-1.021
		c0.188-0.188,0.491-0.188,0.68,0l7.892,7.891c0.24,0.24,0.24,0.633,0,0.871l-2.88,2.879c-0.053,0.055-0.126,0.08-0.201,0.074
		l-8.113-0.672c-0.303-0.025-0.603,0.084-0.816,0.299l-1.396,1.396c-0.193,0.193-0.304,0.457-0.304,0.732v0.375
		c0,0.273,0.108,0.537,0.304,0.73l3.456,3.457c0.164,0.164,0.431,0.164,0.595,0l0.153-0.152c0.166-0.166,0.427-0.152,0.597,0.01
		c0.166,0.158,0.428,0.156,0.588-0.006l2.148-2.148c0.09-0.09,0.235-0.109,0.338-0.035c0.119,0.088,0.139,0.252,0.051,0.365
		l-3.267,4.127c-0.08,0.1-0.071,0.246,0.021,0.336l1.156,1.158l1.156,1.156c0.092,0.092,0.237,0.1,0.338,0.02l4.127-3.266
		c0.103-0.08,0.246-0.072,0.338,0.02c0.101,0.1,0.101,0.26,0,0.359l-2.16,2.16c-0.166,0.166-0.152,0.428,0.01,0.598
		c0.158,0.164,0.156,0.426-0.006,0.588l-0.148,0.148c-0.164,0.164-0.164,0.432,0,0.596l3.457,3.457
		C14.445,45.891,14.709,46,14.982,46h0.375c0.274,0,0.537-0.109,0.731-0.303l1.397-1.396c0.215-0.217,0.324-0.516,0.299-0.818
		l-0.674-8.111c-0.006-0.074,0.021-0.148,0.074-0.201l2.881-2.879c0.24-0.24,0.631-0.24,0.871,0l7.891,7.891
		c0.188,0.188,0.188,0.492,0,0.68l-1.02,1.02l0.68,0.68l6.458-6.457L34.182,35.334z M13.927,21.083l-0.278-1.753l-1.752-0.276
		l1.582-0.807L13.2,16.494l1.255,1.255l1.581-0.807l-0.806,1.582l1.254,1.255L14.732,19.5L13.927,21.083z M27.128,16.727
		l-1.784-1.785c-0.094-0.094-0.094-0.245,0-0.34c0.094-0.094,0.246-0.094,0.34,0l1.784,1.785c0.095,0.094,0.095,0.246,0,0.34
		C27.374,16.821,27.223,16.821,27.128,16.727z M27.852,16.004l-1.595-1.593c-0.094-0.095-0.094-0.246,0-0.34
		c0.095-0.095,0.246-0.095,0.341,0l1.592,1.593c0.096,0.094,0.096,0.246,0,0.34C28.096,16.098,27.943,16.098,27.852,16.004z
		 M28.572,15.283l-1.444-1.444c-0.094-0.094-0.094-0.246,0-0.34c0.095-0.094,0.246-0.094,0.34,0l1.444,1.443
		c0.094,0.095,0.094,0.246,0,0.341C28.818,15.376,28.666,15.375,28.572,15.283z M43.081,3.917c0.442,0.442-0.242,1.888-1.599,3.563
		l-1.967-1.967C41.193,4.161,42.638,3.475,43.081,3.917z M10.984,36.992c-0.271,0.27-0.709,0.27-0.979,0
		c-0.271-0.271-0.27-0.707,0-0.979l4.971-4.971c0.271-0.271,0.707-0.271,0.979,0c0.27,0.27,0.27,0.707,0,0.979L10.984,36.992z
		 M34.669,12.33c-0.471-0.47,0.332-2.07,1.856-3.878l2.021,2.021C36.739,11.998,35.141,12.799,34.669,12.33z M39.023,10.057
		l-2.084-2.084c0.272-0.304,0.562-0.609,0.869-0.916c0.408-0.41,0.819-0.791,1.222-1.137l2.047,2.047
		C40.73,8.37,40.35,8.78,39.941,9.19C39.635,9.497,39.328,9.786,39.023,10.057z M32.1,18.128l1.443,1.444
		c0.094,0.094,0.094,0.246,0,0.34s-0.246,0.094-0.34,0l-1.444-1.444c-0.094-0.094-0.094-0.245,0-0.34
		C31.854,18.035,32.005,18.036,32.1,18.128z M31.376,18.852l1.594,1.592c0.095,0.095,0.095,0.246,0,0.341
		c-0.094,0.094-0.245,0.094-0.34,0l-1.594-1.593c-0.095-0.094-0.095-0.246,0-0.34C31.131,18.756,31.282,18.756,31.376,18.852z
		 M32.1,21.698l-1.785-1.784c-0.094-0.095-0.094-0.246,0-0.34c0.095-0.095,0.246-0.095,0.341,0l1.784,1.784
		c0.094,0.094,0.094,0.246,0,0.34C32.345,21.792,32.191,21.792,32.1,21.698z M27.946,35.102l-0.277-1.752l-1.753-0.275l1.581-0.809
		l-0.277-1.752l1.255,1.254l1.582-0.805l-0.807,1.58l1.255,1.256l-1.753-0.277L27.946,35.102z"/>
</g>
</svg>
