<?xml version="1.0" encoding="utf-8"?>
<!-- Generator: Adobe Illustrator 16.0.4, SVG Export Plug-In . SVG Version: 6.00 Build 0)  -->
<!DOCTYPE svg PUBLIC "-//W3C//DTD SVG 1.1//EN" "http://www.w3.org/Graphics/SVG/1.1/DTD/svg11.dtd">
<svg version="1.1" id="Layer_1" xmlns="http://www.w3.org/2000/svg" xmlns:xlink="http://www.w3.org/1999/xlink" x="0px" y="0px"
	 width="48px" height="48px" viewBox="0 0 48 48" enable-background="new 0 0 48 48" xml:space="preserve">
<g>
	<path fill="#17103D" d="M45.371,29.891c-0.249,0.01-0.512,0.112-0.781,0.273c-0.001,0.001-0.002,0.001-0.002,0.001
		c-1.104,0.659-2.381,2.297-3.716,2.769c-1.271,0.784-4.093,1.084-5.724,1.192c-0.205,0.015-0.316,0.243-0.205,0.416
		c0.128,0.194,0.235,0.446,0.322,0.744c0.137,0.417,0.213,0.985,0.213,1.69c0,0.064-0.006,0.129-0.015,0.191
		c-0.026,0.189-0.096,0.373-0.202,0.532c-0.919,1.368-2.494,2.261-4.24,2.844c-0.136,0.045-0.271,0.088-0.406,0.129
		c-0.545,0.166-1.103,0.304-1.658,0.417c-0.833,0.172-1.664,0.291-2.444,0.376c-1.038,0.112-1.987,0.163-2.732,0.19
		c-0.071,0.003-0.143,0.001-0.214-0.006c-2.058-0.186-3.709-0.446-5.1-0.865c-0.115-0.035-0.23-0.071-0.342-0.108
		c-0.225-0.073-0.441-0.151-0.654-0.235c-1.057-0.42-1.955-0.961-2.781-1.674c-0.535-0.461-1.039-0.994-1.535-1.613
		c-0.088-0.107-0.152-0.232-0.188-0.366c0-0.001,0-0.002,0-0.003c-0.016-0.061-0.032-0.125-0.047-0.195
		c-0.015-0.068-0.028-0.145-0.041-0.222c-0.056-0.351-0.082-0.759-0.024-1.093c0.016-0.076,0.033-0.148,0.052-0.217
		c0.036-0.136,0.077-0.255,0.12-0.357c0.021-0.053,0.045-0.102,0.067-0.145c0.001-0.003,0.002-0.004,0.003-0.006
		c0.092-0.173-0.017-0.383-0.212-0.4c-2.86-0.256-4.606-0.557-6.187-1.404c-1.174-0.602-2.489-2.225-3.555-2.702
		c-0.311-0.14-0.6-0.183-0.856-0.074c-1.992,1.468-1.621,4.991,0.771,8.89c5.526,7.74,18.918,10.195,32.926,6.353
		c3.897-1.388,7.104-3.114,9.85-7.812C47.689,34.195,47.178,29.943,45.371,29.891z"/>
	<path fill="#17103D" d="M33.923,34.186c-0.401-1.271-1.104-3.268-1.642-5.653c-0.743-4.966-0.53-7.825-1.647-7.451
		c0.04-0.986-1.657,0.104-6.602,0c-4.944,0.104-6.642-0.986-6.603,0c-1.089-0.801-0.957,3.951-1.515,6.753
		c-0.099,0.908-0.733,3.722-1.808,6.494l0,0c-0.094,0.242-0.19,0.485-0.291,0.728c-0.006,0.17,0.022,0.342,0.084,0.514
		c0.041,0.113,0.097,0.229,0.166,0.343c0.242,0.399,0.649,0.795,1.189,1.17c0.154,0.106,0.319,0.213,0.493,0.315
		c0.351,0.207,0.738,0.406,1.159,0.595c0.21,0.095,0.429,0.187,0.654,0.272c0.227,0.09,0.461,0.174,0.7,0.256
		c0.24,0.082,0.486,0.16,0.738,0.233c1.009,0.297,2.106,0.532,3.243,0.683c0.283,0.037,0.57,0.068,0.857,0.096
		c1.15,0.105,2.326,0.119,3.471,0.019c0.285-0.024,0.57-0.058,0.852-0.098c1.126-0.16,2.209-0.44,3.194-0.868
		c0.246-0.105,0.487-0.222,0.721-0.347c0.7-0.376,1.339-0.835,1.894-1.392c0.369-0.369,0.701-0.781,0.987-1.238l0,0
		C34.275,35.463,34.076,34.706,33.923,34.186z M26.799,33.953c0.051-0.03,0.109-0.047,0.174-0.047c0.189,0,0.346,0.154,0.346,0.348
		c0,0.191-0.155,0.348-0.346,0.348c-0.191,0-0.347-0.155-0.347-0.348c0-0.004,0-0.006,0-0.009l-1.604-0.007
		c0,0-0.578,0.971-0.836,1.404c0.096,0.062,0.159,0.168,0.159,0.291c0,0.002,0,0.004,0,0.006s0,0.004,0,0.007
		c0,0.19-0.155,0.348-0.346,0.348s-0.347-0.155-0.347-0.348c0-0.003,0-0.005,0-0.007s0-0.004,0-0.006
		c0-0.115,0.058-0.219,0.145-0.281l-0.843-1.414l-1.597,0.007c0,0.003,0,0.005,0,0.009c0,0.191-0.154,0.348-0.346,0.348
		c-0.19,0-0.346-0.155-0.346-0.348c0-0.191,0.155-0.348,0.346-0.348c0.062,0,0.118,0.016,0.167,0.043l0.771-1.369l-0.8-1.348
		c-0.043,0.018-0.088,0.027-0.138,0.027c-0.19,0-0.346-0.154-0.346-0.348c0-0.191,0.155-0.348,0.346-0.348s0.345,0.153,0.347,0.345
		l1.617-0.013l0.83-1.43c-0.097-0.062-0.16-0.17-0.16-0.293c0-0.191,0.154-0.348,0.346-0.348s0.346,0.156,0.346,0.348
		c0,0.125-0.066,0.233-0.164,0.295L25,30.896l1.625,0.013c0.002-0.19,0.156-0.345,0.346-0.345c0.191,0,0.348,0.155,0.348,0.348
		c0,0.191-0.155,0.348-0.348,0.348c-0.051,0-0.099-0.012-0.143-0.031l-0.803,1.352L26.799,33.953z"/>
</g>
</svg>
